<svg width="1000" height="1000" viewBox="0 0 1000 1000" fill="none" xmlns="http://www.w3.org/2000/svg">
<g clip-path="url(#clip0_213_98)">
<rect width="1000" height="1000" rx="500" fill="#FF0000"/>
<path d="M923 660.093C851.523 593.241 777.665 509.674 701.422 409.395L640.667 330.604C633.519 321.054 622.797 305.535 608.502 284.046C591.825 262.558 575.145 245.845 558.468 233.907C541.791 221.969 522.73 216 501.287 216C470.315 216 445.298 225.55 426.236 244.651C407.175 263.752 384.542 292.403 358.333 330.604C294.004 423.721 246.352 490.573 215.38 531.163C182.023 571.753 135.563 614.73 76 660.093L97.443 678C271.369 587.27 403.601 486.991 494.139 377.163H501.287C606.12 494.154 739.542 594.433 901.557 678L923 660.093Z" fill="white"/>
</g>
<rect x="15" y="15" width="970" height="970" rx="485" stroke="white" stroke-width="30"/>
<defs>
<clipPath id="clip0_213_98">
<rect width="1000" height="1000" rx="500" fill="white"/>
</clipPath>
</defs>
</svg>
