<svg width="500" height="500" viewBox="0 0 500 500" fill="none" xmlns="http://www.w3.org/2000/svg">
<path d="M313.074 135.603C283.337 135.603 259.007 146.414 240.083 168.036C221.159 189.658 211.697 216.009 211.697 247.091V353.512C211.697 363.648 206.628 368.716 196.49 368.716C186.352 368.716 181.283 363.648 181.283 353.512V247.091C181.283 217.023 188.887 189.995 204.093 166.009C219.3 142.021 238.731 125.129 262.386 115.332C211.697 106.548 164.387 102.156 120.457 102.156C110.319 102.156 105.25 97.0884 105.25 86.953C105.25 76.8177 110.319 71.75 120.457 71.75C172.835 71.75 237.041 79.5202 313.074 95.0613C317.13 95.7367 320.678 98.1019 323.719 102.156C326.761 105.872 328.281 110.264 328.281 115.332C328.281 120.4 326.592 125.129 323.213 129.521C319.833 133.576 316.453 135.603 313.074 135.603Z" fill="black"/>
<path d="M250.328 485.286C241.272 484.176 236.859 478.526 237.088 468.342C237.552 450.7 236.162 409.343 232.919 344.273C229.969 279.579 229.339 240.358 231.028 226.61C234.157 201.125 248.597 181.964 274.347 169.127C300.096 156.289 327.729 151.683 357.245 155.306C379.381 158.023 396.712 166.618 409.234 181.089C421.755 195.561 426.697 213.527 424.064 234.988C422.5 247.731 417.368 259.014 408.671 268.839C400.308 278.705 390.728 286.038 379.923 290.839C356.809 301.617 338.041 306.12 323.619 304.35C313.557 303.115 309.143 297.467 310.379 287.407C311.491 278.354 317.119 274.109 327.263 274.674C337.785 274.944 351.021 271.123 366.974 263.21C383.261 255.338 392.209 244.863 393.813 231.785C395.46 218.373 392.673 207.819 385.446 200.124C378.261 192.094 365.949 187.008 348.507 184.867C331.401 182.768 313.007 185.616 293.324 193.411C273.976 201.247 263.355 212.878 261.461 228.303C259.567 243.728 260.639 293.215 264.677 376.764L274.288 344.246C277.201 334.392 282.85 329.98 291.235 331.009C301.297 332.244 305.711 337.891 304.476 347.951C304.269 349.628 303.875 351.452 303.293 353.423L268.784 472.234C268.078 475.212 266.177 478.211 263.082 481.237C259.946 484.595 255.694 485.945 250.328 485.286Z" fill="black"/>
</svg>
