<svg width="704" height="396" viewBox="0 0 704 396" fill="none" xmlns="http://www.w3.org/2000/svg">
<rect width="704" height="396" fill="#FF0000"/>
<path d="M109.02 246.8C96.3 246.8 87.12 242.78 81.48 234.74C75.96 226.58 73.2 215.66 73.2 201.98C73.2 189.38 76.02 178.82 81.66 170.3C87.3 161.66 96.42 157.34 109.02 157.34C121.62 157.34 130.74 161.66 136.38 170.3C142.14 178.82 145.02 189.38 145.02 201.98C145.02 215.66 142.2 226.58 136.56 234.74C130.92 242.78 121.74 246.8 109.02 246.8ZM109.02 244.64C117.18 244.64 123.12 240.74 126.84 232.94C130.56 225.02 132.42 214.7 132.42 201.98C132.42 190.1 130.5 180.08 126.66 171.92C122.82 163.64 116.94 159.5 109.02 159.5C101.1 159.5 95.22 163.64 91.38 171.92C87.66 180.08 85.8 190.1 85.8 201.98C85.8 214.7 87.66 225.02 91.38 232.94C95.1 240.74 100.98 244.64 109.02 244.64ZM87.78 150.5C91.38 147.14 95.1 142.94 98.94 137.9L102 133.94C102.36 133.46 102.9 132.68 103.62 131.6C104.46 130.52 105.3 129.68 106.14 129.08C106.98 128.48 107.94 128.18 109.02 128.18C110.58 128.18 111.84 128.66 112.8 129.62C113.76 130.58 114.9 132.02 116.22 133.94C119.46 138.62 121.86 141.98 123.42 144.02C125.1 146.06 127.44 148.22 130.44 150.5L129.36 151.4C120.6 146.84 113.94 141.8 109.38 136.28H109.02C103.74 142.16 97.02 147.2 88.86 151.4L87.78 150.5ZM230.973 234.2C230.973 237.2 231.273 239.48 231.873 241.04C232.473 242.48 233.853 243.2 236.013 243.2C236.973 243.2 238.473 242.9 240.513 242.3V245H209.913V242.3C211.953 242.9 213.453 243.2 214.413 243.2C216.333 243.2 217.533 242.48 218.013 241.04C218.613 239.6 218.913 237.32 218.913 234.2V185.96C218.913 177.68 217.173 171.2 213.693 166.52C210.333 161.84 205.893 159.5 200.373 159.5C195.093 159.5 190.833 161.6 187.593 165.8C184.473 169.88 182.253 174.74 180.933 180.38C179.733 186.02 179.133 191.42 179.133 196.58V234.2C179.133 237.32 179.373 239.6 179.853 241.04C180.453 242.48 181.713 243.2 183.633 243.2C184.593 243.2 186.093 242.9 188.133 242.3V245H157.533V242.3C159.573 242.9 161.073 243.2 162.033 243.2C164.193 243.2 165.573 242.48 166.173 241.04C166.773 239.48 167.073 237.2 167.073 234.2V170.3C165.273 170.9 163.353 171.2 161.313 171.2C160.473 171.2 159.213 171.08 157.533 170.84V165.98H159.153C159.153 166.82 159.573 167.54 160.413 168.14C161.373 168.74 162.453 169.04 163.653 169.04C165.333 169.04 166.833 168.38 168.153 167.06C169.473 165.74 171.093 163.7 173.013 160.94H176.253L176.433 175.52H178.953C181.113 170.12 184.053 165.74 187.773 162.38C191.613 158.9 196.353 157.16 201.993 157.16C206.553 157.16 211.053 158.36 215.493 160.76C220.053 163.04 223.773 166.4 226.653 170.84C229.533 175.16 230.973 180.2 230.973 185.96V234.2ZM311.206 160.76C309.406 160.28 307.246 161.42 304.726 164.18C307.846 166.94 310.186 170.36 311.746 174.44C313.306 178.52 314.086 182.84 314.086 187.4C314.086 196.28 311.626 203.48 306.706 209C301.906 214.52 294.406 217.28 284.206 217.28C276.046 217.28 269.446 215.24 264.406 211.16C261.766 211.88 259.906 213.32 258.826 215.48C257.746 217.52 257.206 219.56 257.206 221.6C257.206 227.36 262.426 230.24 272.866 230.24L292.306 230.6C302.506 230.72 310.126 233.54 315.166 239.06C320.326 244.46 322.906 250.88 322.906 258.32C322.906 264.2 321.286 269.72 318.046 274.88C314.806 280.16 310.246 284.42 304.366 287.66C298.486 290.9 291.766 292.52 284.206 292.52C277.846 292.52 271.966 291.32 266.566 288.92C261.286 286.52 257.086 283.28 253.966 279.2C250.966 275.24 249.466 270.86 249.466 266.06C249.466 262.7 250.366 259.4 252.166 256.16C253.966 253.04 256.786 250.4 260.626 248.24C264.586 246.08 269.566 245 275.566 245V246.44C269.566 246.44 265.546 248.18 263.506 251.66C261.466 255.14 260.446 259.94 260.446 266.06C260.446 272.54 262.426 278 266.386 282.44C270.346 287 276.286 289.28 284.206 289.28C292.726 289.28 299.326 286.64 304.006 281.36C308.806 276.2 311.206 268.94 311.206 259.58C311.206 245.66 299.206 238.7 275.206 238.7C259.606 238.7 251.806 234.44 251.806 225.92C251.806 222.8 252.706 219.62 254.506 216.38C256.426 213.14 259.246 210.92 262.966 209.72C257.806 204.44 255.226 197 255.226 187.4C255.226 179 257.626 171.92 262.426 166.16C267.226 160.28 274.486 157.34 284.206 157.34C291.766 157.34 298.066 159.2 303.106 162.92C304.666 161.36 306.526 160.1 308.686 159.14C310.966 158.06 313.126 157.52 315.166 157.52C316.486 157.52 317.446 157.64 318.046 157.88C319.846 158.48 321.346 159.5 322.546 160.94C323.866 162.26 324.526 163.7 324.526 165.26C324.526 166.46 324.046 167.72 323.086 169.04C321.886 170.6 320.806 171.38 319.846 171.38C319.006 171.38 318.286 170.96 317.686 170.12C317.086 169.28 316.366 168.02 315.526 166.34C314.686 164.54 313.966 163.22 313.366 162.38C312.766 161.42 312.046 160.88 311.206 160.76ZM284.206 215.12C290.566 215.12 295.006 212.66 297.526 207.74C300.166 202.82 301.486 196.04 301.486 187.4C301.486 179.24 300.166 172.58 297.526 167.42C294.886 162.14 290.446 159.5 284.206 159.5C278.086 159.5 273.766 162.14 271.246 167.42C268.726 172.58 267.466 179.24 267.466 187.4C267.466 196.04 268.666 202.82 271.066 207.74C273.586 212.66 277.966 215.12 284.206 215.12ZM409.036 246.8C397.636 246.8 389.116 243.02 383.476 235.46C377.836 227.78 375.016 216.62 375.016 201.98C375.016 194.3 376.216 187.1 378.616 180.38C381.016 173.54 384.736 168.02 389.776 163.82C394.936 159.5 401.236 157.34 408.676 157.34C420.796 157.34 429.436 161.06 434.596 168.5C439.756 175.82 442.336 184.64 442.336 194.96C442.336 196.76 442.216 199.1 441.976 201.98L441.796 203.6H387.616C388.096 230.48 395.596 243.92 410.116 243.92C416.596 243.92 421.396 241.94 424.516 237.98C427.636 234.02 429.196 229.52 429.196 224.48C429.196 222.44 428.656 220.94 427.576 219.98C426.616 219.02 425.356 218.54 423.796 218.54C422.596 218.54 421.516 218.9 420.556 219.62C419.716 220.22 419.296 221 419.296 221.96H417.676V217.1H440.536C440.896 221.66 439.756 226.22 437.116 230.78C434.596 235.34 430.876 239.12 425.956 242.12C421.036 245.12 415.396 246.68 409.036 246.8ZM425.056 200.9C427.216 200.9 428.476 200.72 428.836 200.36C429.316 199.88 429.616 198.8 429.736 197.12C429.856 195.8 429.916 193.82 429.916 191.18C429.916 182.06 428.236 174.5 424.876 168.5C421.516 162.5 415.876 159.5 407.956 159.5C400.276 159.5 394.996 163.28 392.116 170.84C389.236 178.4 387.736 188.42 387.616 200.9H425.056ZM489.134 246.8C477.974 246.8 469.934 242.3 465.014 233.3C460.094 224.18 457.634 212.6 457.634 198.56C457.634 191.12 458.834 184.28 461.234 178.04C463.634 171.8 467.174 166.82 471.854 163.1C476.654 159.26 482.474 157.34 489.314 157.34C495.074 157.34 500.054 159.02 504.254 162.38C508.454 165.74 511.814 170.12 514.334 175.52H517.214L517.394 128.54V110.36C515.594 110.96 513.674 111.26 511.634 111.26C510.794 111.26 509.534 111.14 507.854 110.9V106.04H509.474C509.474 106.88 509.894 107.6 510.734 108.2C511.694 108.8 512.774 109.1 513.974 109.1C515.774 109.1 517.574 108.32 519.374 106.76C521.294 105.08 523.034 103.16 524.594 101H527.114V237.98C527.354 241.46 528.734 243.2 531.254 243.2C532.694 243.2 534.254 242.9 535.934 242.3V245H520.634L516.494 231.86H513.254C508.334 241.82 500.294 246.8 489.134 246.8ZM492.374 243.56C501.014 243.56 506.954 239.66 510.194 231.86C513.434 223.94 515.054 213.8 515.054 201.44C515.054 195.68 514.214 189.56 512.534 183.08C510.974 176.6 508.454 171.08 504.974 166.52C501.494 161.84 497.174 159.5 492.014 159.5C484.574 159.5 479.054 163.52 475.454 171.56C471.974 179.6 470.234 189.5 470.234 201.26C470.234 213.26 471.974 223.34 475.454 231.5C478.934 239.54 484.574 243.56 492.374 243.56ZM564.353 149.24C562.193 149.24 560.393 148.58 558.953 147.26C557.513 145.94 556.793 144.26 556.793 142.22C556.793 140.18 557.513 138.5 558.953 137.18C560.393 135.86 562.193 135.2 564.353 135.2C566.513 135.2 568.313 135.92 569.753 137.36C571.313 138.68 572.093 140.3 572.093 142.22C572.093 144.26 571.373 145.94 569.933 147.26C568.493 148.58 566.633 149.24 564.353 149.24ZM548.513 242.3C550.553 242.9 552.053 243.2 553.013 243.2C555.173 243.2 556.553 242.48 557.153 241.04C557.753 239.48 558.053 237.2 558.053 234.2V170.12C556.253 170.72 554.333 171.02 552.293 171.02C551.453 171.02 550.193 170.9 548.513 170.66V165.8H550.133C550.133 166.64 550.553 167.36 551.393 167.96C552.353 168.56 553.433 168.86 554.633 168.86C556.313 168.86 557.813 168.2 559.133 166.88C560.453 165.56 562.073 163.52 563.993 160.76H569.213V234.2C569.213 237.32 569.453 239.6 569.933 241.04C570.533 242.48 571.793 243.2 573.713 243.2C574.673 243.2 576.173 242.9 578.213 242.3V245H548.513V242.3ZM607.796 246.8C603.356 246.8 600.476 245.12 599.156 241.76C597.956 238.28 597.356 233.24 597.356 226.64V218V163.46H585.476V160.76H597.356V141.5C599.876 141.5 601.736 140.66 602.936 138.98C604.256 137.3 604.916 135.56 604.916 133.76H608.696L608.516 160.76H623.276V163.46H608.516L608.336 226.82C608.336 231.62 608.756 235.1 609.596 237.26C610.556 239.3 612.056 240.32 614.096 240.32C616.496 240.32 618.476 239.24 620.036 237.08C621.596 234.92 622.736 232.52 623.456 229.88C624.296 227.12 624.716 224.96 624.716 223.4H626.516C626.516 226.76 625.736 230.3 624.176 234.02C622.616 237.62 620.396 240.68 617.516 243.2C614.756 245.6 611.516 246.8 607.796 246.8Z" fill="white"/>
</svg>
