<svg width="8192" height="4608" viewBox="0 0 8192 4608" fill="none" xmlns="http://www.w3.org/2000/svg">
<g clip-path="url(#clip0_1_42)">
<path d="M8192 0H0V4608H8192V0Z" fill="#228B22"/>
<path d="M2433.1 2651C2394.1 2651 2359.9 2642.3 2330.5 2624.9C2301.1 2607.5 2278.3 2584.4 2262.1 2555.6C2245.9 2526.8 2237.8 2495 2237.8 2460.2V2021H2389V2471C2389 2485.4 2394.1 2498 2404.3 2508.8C2414.5 2519.6 2427.1 2525 2442.1 2525H2608.6V2651H2433.1ZM2678.26 2651V2189.3H2818.66V2651H2678.26ZM2748.46 2137.1C2726.26 2137.1 2707.06 2129 2690.86 2112.8C2674.66 2096.6 2666.56 2077.4 2666.56 2055.2C2666.56 2033 2674.66 2013.8 2690.86 1997.6C2707.06 1980.8 2726.26 1972.4 2748.46 1972.4C2770.66 1972.4 2789.86 1980.8 2806.06 1997.6C2822.26 2013.8 2830.36 2033 2830.36 2055.2C2830.36 2077.4 2822.26 2096.6 2806.06 2112.8C2789.86 2129 2770.66 2137.1 2748.46 2137.1ZM3147.64 2651C3099.64 2651 3057.04 2641.1 3019.84 2621.3C2982.64 2600.9 2953.24 2573.6 2931.64 2539.4C2910.04 2504.6 2899.24 2465 2899.24 2420.6C2899.24 2376.2 2910.04 2336.9 2931.64 2302.7C2953.24 2267.9 2982.64 2240.3 3019.84 2219.9C3057.04 2199.5 3099.64 2189.3 3147.64 2189.3H3216.94V2307.2H3153.04C3129.64 2307.2 3109.54 2312.3 3092.74 2322.5C3075.94 2332.1 3062.74 2345.6 3053.14 2363C3044.14 2379.8 3039.64 2399 3039.64 2420.6C3039.64 2442.2 3044.14 2461.7 3053.14 2479.1C3062.74 2495.9 3075.94 2509.4 3092.74 2519.6C3109.54 2529.2 3129.64 2534 3153.04 2534H3216.94V2651H3147.64ZM3294.37 2651V2189.3H3434.77V2651H3294.37ZM3364.57 2137.1C3342.37 2137.1 3323.17 2129 3306.97 2112.8C3290.77 2096.6 3282.67 2077.4 3282.67 2055.2C3282.67 2033 3290.77 2013.8 3306.97 1997.6C3323.17 1980.8 3342.37 1972.4 3364.57 1972.4C3386.77 1972.4 3405.97 1980.8 3422.17 1997.6C3438.37 2013.8 3446.47 2033 3446.47 2055.2C3446.47 2077.4 3438.37 2096.6 3422.17 2112.8C3405.97 2129 3386.77 2137.1 3364.57 2137.1ZM3706.15 2651C3663.55 2651 3630.25 2639 3606.25 2615C3582.25 2590.4 3570.25 2557.4 3570.25 2516V2076.8H3710.65V2507.9C3710.65 2515.1 3713.05 2521.4 3717.85 2526.8C3723.25 2531.6 3729.55 2534 3736.75 2534H3837.55V2651H3706.15ZM3494.65 2303.6V2189.3H3837.55V2303.6H3494.65ZM4155.57 2651V2207.3C4155.57 2172.5 4163.97 2141 4180.77 2112.8C4198.17 2084.6 4221.27 2062.4 4250.07 2046.2C4279.47 2029.4 4312.17 2021 4348.17 2021H4583.07V2147H4367.07C4350.27 2147 4335.87 2153 4323.87 2165C4312.47 2177 4306.77 2191.7 4306.77 2209.1V2300H4552.47V2425.1H4306.77V2651H4155.57ZM4658.35 2651V2325.2C4658.35 2283.2 4670.35 2250.2 4694.35 2226.2C4718.35 2202.2 4751.65 2190.2 4794.25 2190.2H4928.35V2303.6H4828.45C4820.05 2303.6 4812.85 2306.6 4806.85 2312.6C4800.85 2318 4797.85 2325.2 4797.85 2334.2V2651H4658.35ZM5231.86 2651C5179.66 2651 5133.76 2641.4 5094.16 2622.2C5054.56 2602.4 5023.66 2575.4 5001.46 2541.2C4979.86 2506.4 4969.06 2466.2 4969.06 2420.6C4969.06 2370.2 4979.56 2327 5000.56 2291C5021.56 2255 5049.46 2227.4 5084.26 2208.2C5119.66 2188.4 5158.66 2178.5 5201.26 2178.5C5249.86 2178.5 5290.36 2188.7 5322.76 2209.1C5355.76 2229.5 5380.66 2257.4 5397.46 2292.8C5414.26 2327.6 5422.66 2367.5 5422.66 2412.5C5422.66 2420.3 5422.06 2429.6 5420.86 2440.4C5420.26 2450.6 5419.36 2458.7 5418.16 2464.7H5115.76C5119.36 2480.3 5126.26 2493.5 5136.46 2504.3C5146.66 2515.1 5159.56 2523.2 5175.16 2528.6C5190.76 2533.4 5208.16 2535.8 5227.36 2535.8H5368.66V2651H5231.86ZM5112.16 2377.4H5287.66C5286.46 2367.8 5284.66 2358.5 5282.26 2349.5C5279.86 2340.5 5275.96 2332.7 5270.56 2326.1C5265.76 2318.9 5260.06 2312.9 5253.46 2308.1C5246.86 2302.7 5239.06 2298.5 5230.06 2295.5C5221.66 2292.5 5212.06 2291 5201.26 2291C5187.46 2291 5175.16 2293.4 5164.36 2298.2C5153.56 2303 5144.56 2309.6 5137.36 2318C5130.16 2325.8 5124.46 2335.1 5120.26 2345.9C5116.66 2356.1 5113.96 2366.6 5112.16 2377.4ZM5745.14 2651C5692.94 2651 5647.04 2641.4 5607.44 2622.2C5567.84 2602.4 5536.94 2575.4 5514.74 2541.2C5493.14 2506.4 5482.34 2466.2 5482.34 2420.6C5482.34 2370.2 5492.84 2327 5513.84 2291C5534.84 2255 5562.74 2227.4 5597.54 2208.2C5632.94 2188.4 5671.94 2178.5 5714.54 2178.5C5763.14 2178.5 5803.64 2188.7 5836.04 2209.1C5869.04 2229.5 5893.94 2257.4 5910.74 2292.8C5927.54 2327.6 5935.94 2367.5 5935.94 2412.5C5935.94 2420.3 5935.34 2429.6 5934.14 2440.4C5933.54 2450.6 5932.64 2458.7 5931.44 2464.7H5629.04C5632.64 2480.3 5639.54 2493.5 5649.74 2504.3C5659.94 2515.1 5672.84 2523.2 5688.44 2528.6C5704.04 2533.4 5721.44 2535.8 5740.64 2535.8H5881.94V2651H5745.14ZM5625.44 2377.4H5800.94C5799.74 2367.8 5797.94 2358.5 5795.54 2349.5C5793.14 2340.5 5789.24 2332.7 5783.84 2326.1C5779.04 2318.9 5773.34 2312.9 5766.74 2308.1C5760.14 2302.7 5752.34 2298.5 5743.34 2295.5C5734.94 2292.5 5725.34 2291 5714.54 2291C5700.74 2291 5688.44 2293.4 5677.64 2298.2C5666.84 2303 5657.84 2309.6 5650.64 2318C5643.44 2325.8 5637.74 2335.1 5633.54 2345.9C5629.94 2356.1 5627.24 2366.6 5625.44 2377.4Z" fill="white"/>
</g>
<defs>
<clipPath id="clip0_1_42">
<rect width="8192" height="4608" fill="white"/>
</clipPath>
</defs>
</svg>
